<svg xmlns="http://www.w3.org/2000/svg" width="67.808" height="67.808" viewBox="0 0 67.808 67.808">
  <path id="_icon__rounded_facebook_" data-name="🦆 icon _rounded facebook_" d="M50.876,0a16.3,16.3,0,0,1,6.562,1.337,17.178,17.178,0,0,1,9.033,9.033,16.3,16.3,0,0,1,1.337,6.562V50.8a16.585,16.585,0,0,1-1.337,6.6,17.068,17.068,0,0,1-9.033,9.073,16.3,16.3,0,0,1-6.562,1.337H16.932a16.3,16.3,0,0,1-6.562-1.337A17.069,17.069,0,0,1,1.337,57.4,16.585,16.585,0,0,1,0,50.8V16.932A16.3,16.3,0,0,1,1.337,10.37,17.178,17.178,0,0,1,10.37,1.337,16.3,16.3,0,0,1,16.932,0ZM46.583,14.825H39.454a10.174,10.174,0,0,0-3.889.729,10.4,10.4,0,0,0-3.078,1.9,9.173,9.173,0,0,0-2.066,2.714,6.831,6.831,0,0,0-.77,3.079v4.294H23.332V35.97h6.319V52.983h8.506V35.97h6.319V27.545H38.157V25.438a1.892,1.892,0,0,1,.77-1.62,2.391,2.391,0,0,1,1.337-.567h6.319Z" fill="#DFC1CE"/>
</svg>
