<svg xmlns="http://www.w3.org/2000/svg" width="67.808" height="67.808" viewBox="0 0 67.808 67.808">
  <path id="_icon__rounded_linkedin_" data-name="🦆 icon _rounded linkedin_" d="M50.876,0a16.3,16.3,0,0,1,6.562,1.337,17.178,17.178,0,0,1,9.033,9.033,16.3,16.3,0,0,1,1.337,6.562V50.8a16.585,16.585,0,0,1-1.337,6.6,17.068,17.068,0,0,1-9.033,9.073,16.3,16.3,0,0,1-6.562,1.337H16.932a16.3,16.3,0,0,1-6.562-1.337A17.069,17.069,0,0,1,1.337,57.4,16.585,16.585,0,0,1,0,50.8V16.932A16.3,16.3,0,0,1,1.337,10.37,17.178,17.178,0,0,1,10.37,1.337,16.3,16.3,0,0,1,16.932,0ZM23.332,25.438H14.825V52.983h8.506Zm-4.213-2.187a4.112,4.112,0,0,0,2.957-1.215,4.205,4.205,0,0,0,0-5.995,4.112,4.112,0,0,0-2.957-1.215,4.209,4.209,0,0,0-3.038,1.215,4.206,4.206,0,0,0,0,5.995A4.209,4.209,0,0,0,19.119,23.251ZM52.983,37.023a11.951,11.951,0,0,0-5.833-9.965,11.791,11.791,0,0,0-5.468-1.377,12.71,12.71,0,0,0-5.63,1.053v-1.3H27.545V52.983h8.506V36.132l3.484-1.7a4.041,4.041,0,0,1,1.782-.324,2.929,2.929,0,0,1,1.7.405,2.664,2.664,0,0,1,.972,1.053,2.905,2.905,0,0,1,.486,1.458v15.96h8.506Z" fill="#DFC1CE"/>
</svg>
