<svg xmlns="http://www.w3.org/2000/svg" xmlns:xlink="http://www.w3.org/1999/xlink" width="1431" height="800" viewBox="0 0 1431 800">
  <defs>
    <clipPath id="clip-Styletile">
      <rect width="1431" height="800"/>
    </clipPath>
  </defs>
  <g id="Styletile" clip-path="url(#clip-Styletile)">
    <rect width="1431" height="800" fill="#fff"/>
    <g id="Rectangle_6" data-name="Rectangle 6" fill="#efedde" stroke="#352d39" stroke-width="1">
      <rect width="1431" height="800" stroke="none"/>
      <rect x="0.5" y="0.5" width="1430" height="799" fill="none"/>
    </g>
    <text id="H1_Rock_Salt_Pro_4_21rem" data-name="H1 Rock Salt Pro 4,21rem" transform="translate(47 157)" fill="#352d39" font-size="84" font-family="var(--h_font)"><tspan x="0" y="0">H1 Rock Salt Pro 4,21rem</tspan></text>
    <text id="H2_Rock_Salt_Pro_3_16_rem" data-name="H2 Rock Salt Pro 3,16 rem" transform="translate(47 302)" fill="#352d39" font-size="63" font-family="RockSaltPro, Rock Salt Pro"><tspan x="0" y="0">H2 Rock Salt Pro 3,16 rem</tspan></text>
    <text id="H3_Rock_Salt_Pro_3_37rem" data-name="H3 Rock Salt Pro 3,37rem" transform="translate(47 434)" fill="#352d39" font-size="47" font-family="RockSaltPro, Rock Salt Pro"><tspan x="0" y="0">H3 Rock Salt Pro 3,37rem</tspan></text>
    <text id="H4_Rock_Salt_Pro_1_78rem" data-name="H4 Rock Salt Pro 1,78rem" transform="translate(47 537)" fill="#352d39" font-size="35" font-family="RockSaltPro, Rock Salt Pro"><tspan x="0" y="0">H4 Rock Salt Pro 1,78rem</tspan></text>
    <text id="H5_Rock_Salt_Pro_1_33rem" data-name="H5 Rock Salt Pro 1,33rem" transform="translate(47 623)" fill="#352d39" font-size="26" font-family="RockSaltPro, Rock Salt Pro"><tspan x="0" y="0">H5 Rock Salt Pro 1,33rem</tspan></text>
    <text id="P_Roboto_1rem" data-name="P Roboto 1rem" transform="translate(47 695)" fill="#352d39" font-size="20" font-family="Roboto-Regular, Roboto"><tspan x="0" y="0">P Roboto 1rem</tspan></text>
    <text id="P_Roboto_0_75rem" data-name="P Roboto 0,75rem" transform="translate(47 751)" fill="#352d39" font-size="15" font-family="Roboto-Regular, Roboto"><tspan x="0" y="0">P Roboto 0,75rem</tspan></text>
    <g id="Group_4" data-name="Group 4" transform="translate(618.095 612)">
      <rect id="Rectangle_1" data-name="Rectangle 1" width="142" height="143" rx="10" transform="translate(-0.096 0)" fill="#352d39"/>
      <text id="Tekst_352D39" data-name="Tekst
#352D39" transform="translate(68.904 66)" fill="#edebd7" font-size="20" font-family="Roboto-Regular, Roboto"><tspan x="-24.756" y="0">Tekst</tspan><tspan x="-40.791" y="26">#352D39</tspan></text>
    </g>
    <g id="Group_2" data-name="Group 2" transform="translate(924.073 613.051)">
      <rect id="Rectangle_3" data-name="Rectangle 3" width="142" height="142" rx="10" transform="translate(-0.073 -0.051)" fill="#6d435a"/>
      <text id="Primær_6D435A" data-name="Primær
#6D435A" transform="translate(66.927 65.949)" fill="#edebd7" font-size="20" font-family="Roboto-Regular, Roboto"><tspan x="-32.71" y="0">Primær</tspan><tspan x="-41.699" y="26">#6D435A</tspan></text>
      <text id="Primær_6D435A-2" data-name="Primær
#6D435A" transform="translate(66.927 65.949)" fill="#edebd7" font-size="20" font-family="Roboto-Regular, Roboto"><tspan x="-32.71" y="0">Primær</tspan><tspan x="-41.699" y="26">#6D435A</tspan></text>
    </g>
    <g id="Group_1" data-name="Group 1" transform="translate(1076.536 612)">
      <rect id="Rectangle_4" data-name="Rectangle 4" width="143" height="143" rx="10" transform="translate(0.463 0)" fill="#72705b"/>
      <text id="Sekundær_72705B" data-name="Sekundær
#72705B" transform="translate(69.463 66)" fill="#edebd7" font-size="20" font-family="Roboto-Regular, Roboto"><tspan x="-44.795" y="0">Sekundær</tspan><tspan x="-40.459" y="26">#72705B</tspan></text>
    </g>
    <g id="Group_3" data-name="Group 3" transform="translate(770.558 612)">
      <g id="Rectangle_2" data-name="Rectangle 2" transform="translate(0.441 0)" fill="#efedde" stroke="#352d39" stroke-width="1">
        <rect width="143" height="142" rx="10" stroke="none"/>
        <rect x="0.5" y="0.5" width="142" height="141" rx="9.5" fill="none"/>
      </g>
      <text id="Baggrund_EFEDDE" data-name="Baggrund
#EFEDDE" transform="translate(68.442 66)" fill="#352d39" font-size="20" font-family="Roboto-Regular, Roboto"><tspan x="-42.939" y="0">Baggrund</tspan><tspan x="-41.851" y="26">#EFEDDE</tspan></text>
    </g>
    <g id="Group_5" data-name="Group 5" transform="translate(1230.051 612)">
      <rect id="Rectangle_5" data-name="Rectangle 5" width="142" height="142" rx="10" transform="translate(-0.051 0)" fill="#dfc1ce"/>
      <text id="Accent_DFC1CE" data-name="Accent
#DFC1CE" transform="translate(67.949 66)" fill="#352d39" font-size="20" font-family="Roboto-Regular, Roboto"><tspan x="-31.074" y="0">Accent</tspan><tspan x="-42.559" y="26">#DFC1CE</tspan></text>
    </g>
    <g id="Group_7" data-name="Group 7" transform="translate(142 0)">
      <g id="Rectangle_7" data-name="Rectangle 7" transform="translate(1008 449)" fill="#6d435a" stroke="#6d435a" stroke-width="1">
        <rect width="222" height="56" rx="10" stroke="none"/>
        <rect x="0.5" y="0.5" width="221" height="55" rx="9.5" fill="none"/>
      </g>
      <text id="Knap_2" data-name="Knap 2" transform="translate(1119 485)" fill="#edebd7" font-size="20" font-family="Roboto-Regular, Roboto"><tspan x="-30.815" y="0">Knap 2</tspan></text>
    </g>
    <g id="Group_6" data-name="Group 6" transform="translate(142 0)">
      <g id="Rectangle_8" data-name="Rectangle 8" transform="translate(1008 516)" fill="#efedde" stroke="#6d435a" stroke-width="1">
        <rect width="222" height="56" rx="10" stroke="none"/>
        <rect x="0.5" y="0.5" width="221" height="55" rx="9.5" fill="none"/>
      </g>
      <text id="Knap_2_-_hover" data-name="Knap 2 - hover" transform="translate(1119 552)" fill="#6d435a" font-size="20" font-family="Roboto-Regular, Roboto"><tspan x="-63.188" y="0">Knap 2 - hover</tspan></text>
    </g>
    <g id="Group_8" data-name="Group 8" transform="translate(134 0)">
      <g id="Rectangle_7-2" data-name="Rectangle 7" transform="translate(764 449)" fill="#72705b" stroke="#72705b" stroke-width="1">
        <rect width="222" height="56" rx="10" stroke="none"/>
        <rect x="0.5" y="0.5" width="221" height="55" rx="9.5" fill="none"/>
      </g>
      <text id="Knap_1" data-name="Knap 1" transform="translate(875 485)" fill="#edebd7" font-size="20" font-family="Roboto-Regular, Roboto"><tspan x="-30.815" y="0">Knap 1</tspan></text>
    </g>
    <g id="Group_9" data-name="Group 9" transform="translate(-110 0)">
      <g id="Rectangle_8-2" data-name="Rectangle 8" transform="translate(1008 516)" fill="#efedde" stroke="#72705b" stroke-width="1">
        <rect width="222" height="56" rx="10" stroke="none"/>
        <rect x="0.5" y="0.5" width="221" height="55" rx="9.5" fill="none"/>
      </g>
      <text id="Knap_1_-_hover" data-name="Knap 1 - hover" transform="translate(1119 552)" fill="#72705b" font-size="20" font-family="Roboto-Regular, Roboto"><tspan x="-63.188" y="0">Knap 1 - hover</tspan></text>
    </g>
    <path id="_icon__rounded_facebook_" data-name="🦆 icon _rounded facebook_" d="M50.876,0a16.3,16.3,0,0,1,6.562,1.337,17.178,17.178,0,0,1,9.033,9.033,16.3,16.3,0,0,1,1.337,6.562V50.8a16.585,16.585,0,0,1-1.337,6.6,17.068,17.068,0,0,1-9.033,9.073,16.3,16.3,0,0,1-6.562,1.337H16.932a16.3,16.3,0,0,1-6.562-1.337A17.069,17.069,0,0,1,1.337,57.4,16.585,16.585,0,0,1,0,50.8V16.932A16.3,16.3,0,0,1,1.337,10.37,17.178,17.178,0,0,1,10.37,1.337,16.3,16.3,0,0,1,16.932,0ZM46.583,14.825H39.454a10.174,10.174,0,0,0-3.889.729,10.4,10.4,0,0,0-3.078,1.9,9.173,9.173,0,0,0-2.066,2.714,6.831,6.831,0,0,0-.77,3.079v4.294H23.332V35.97h6.319V52.983h8.506V35.97h6.319V27.545H38.157V25.438a1.892,1.892,0,0,1,.77-1.62,2.391,2.391,0,0,1,1.337-.567h6.319Z" transform="translate(1150 343.24)" fill="#6d435a"/>
    <path id="_icon__rounded_instagram_" data-name="🦆 icon _rounded instagram_" d="M45.367,33.945a12.415,12.415,0,0,0-.405-3h3.4V47.312a1.357,1.357,0,0,1-.446,1.053,1.566,1.566,0,0,1-1.094.405H20.172a1.389,1.389,0,0,1-1.458-1.458V30.947h3.322a12.415,12.415,0,0,0-.405,3,11.663,11.663,0,0,0,.932,4.618,11.477,11.477,0,0,0,2.552,3.767,12.3,12.3,0,0,0,3.808,2.511,11.91,11.91,0,0,0,9.235,0,11.543,11.543,0,0,0,6.279-6.279A11.663,11.663,0,0,0,45.367,33.945ZM33.54,41.317a7.585,7.585,0,0,1-2.916-.567,7.236,7.236,0,0,1-2.39-1.58,7.3,7.3,0,0,1-2.147-5.225,7.583,7.583,0,0,1,.567-2.916,7.164,7.164,0,0,1,3.97-3.97,7.585,7.585,0,0,1,2.916-.567,7.276,7.276,0,0,1,6.805,4.537,7.585,7.585,0,0,1,.567,2.916,7.322,7.322,0,0,1-7.372,7.372Zm13.286-22.2a1.566,1.566,0,0,1,1.094.405,1.357,1.357,0,0,1,.446,1.053v4.456a1.357,1.357,0,0,1-.446,1.053,1.567,1.567,0,0,1-1.094.405H42.37a1.389,1.389,0,0,1-1.458-1.458V20.577a1.389,1.389,0,0,1,1.458-1.458ZM50.8,0a16.585,16.585,0,0,1,6.6,1.337,17.069,17.069,0,0,1,9.073,9.033,16.3,16.3,0,0,1,1.337,6.562V50.8a16.585,16.585,0,0,1-1.337,6.6A16.961,16.961,0,0,1,57.4,66.471a16.585,16.585,0,0,1-6.6,1.337H16.932a16.3,16.3,0,0,1-6.562-1.337A17.069,17.069,0,0,1,1.337,57.4,16.585,16.585,0,0,1,0,50.8V16.932A16.3,16.3,0,0,1,1.337,10.37,17.178,17.178,0,0,1,10.37,1.337,16.3,16.3,0,0,1,16.932,0Zm2.025,19.119a4.426,4.426,0,0,0-4.456-4.456H18.714a4.426,4.426,0,0,0-4.456,4.456V48.77a4.426,4.426,0,0,0,4.456,4.456H48.365a4.426,4.426,0,0,0,4.456-4.456Z" transform="translate(1227.096 343.24)" fill="#6d435a"/>
    <path id="_icon__rounded_linkedin_" data-name="🦆 icon _rounded linkedin_" d="M50.876,0a16.3,16.3,0,0,1,6.562,1.337,17.178,17.178,0,0,1,9.033,9.033,16.3,16.3,0,0,1,1.337,6.562V50.8a16.585,16.585,0,0,1-1.337,6.6,17.068,17.068,0,0,1-9.033,9.073,16.3,16.3,0,0,1-6.562,1.337H16.932a16.3,16.3,0,0,1-6.562-1.337A17.069,17.069,0,0,1,1.337,57.4,16.585,16.585,0,0,1,0,50.8V16.932A16.3,16.3,0,0,1,1.337,10.37,17.178,17.178,0,0,1,10.37,1.337,16.3,16.3,0,0,1,16.932,0ZM23.332,25.438H14.825V52.983h8.506Zm-4.213-2.187a4.112,4.112,0,0,0,2.957-1.215,4.205,4.205,0,0,0,0-5.995,4.112,4.112,0,0,0-2.957-1.215,4.209,4.209,0,0,0-3.038,1.215,4.206,4.206,0,0,0,0,5.995A4.209,4.209,0,0,0,19.119,23.251ZM52.983,37.023a11.951,11.951,0,0,0-5.833-9.965,11.791,11.791,0,0,0-5.468-1.377,12.71,12.71,0,0,0-5.63,1.053v-1.3H27.545V52.983h8.506V36.132l3.484-1.7a4.041,4.041,0,0,1,1.782-.324,2.929,2.929,0,0,1,1.7.405,2.664,2.664,0,0,1,.972,1.053,2.905,2.905,0,0,1,.486,1.458v15.96h8.506Z" transform="translate(1304.192 343.24)" fill="#6d435a"/>
  </g>
</svg>
